#!OML:ASF F:\VICON\USERDATA\INSTALL\rory7\rory7.ASF
:FULLY-SPECIFIED
:DEGREES
1002
root 0.429406 18.8221 2.58975 -4.00625 -5.01691 1.26772
lowerback 4.69345 1.24261 -1.42062
upperback -0.128986 1.51802 -2.09822
thorax -2.74425 0.761666 -1.46808
lowerneck -5.53275 -5.43005 -8.10592
upperneck -0.101821 -6.93198 9.83073
head 1.50684 -3.32016 4.02858
rclavicle 7.52897e-015 -1.51076e-014
rhumerus 38.6443 0.740534 -50.0098
rradius 121.012
rwrist 12.4674
rhand -44.9983 23.4028
rfingers 7.12502
rthumb -17.782 -5.8042
lclavicle 7.52897e-015 -1.51076e-014
lhumerus -35.0602 17.6431 67.7139
lradius 20.431
lwrist -12.3307
lhand -28.0754 20.8723
lfingers 7.12502
lthumb -1.45875 50.847
rfemur 8.74183 19.2277 17.7237
rtibia 7.27779
rfoot -11.019 -22.7819
rtoes -6.72103
lfemur 6.91418 -11.2466 -19.4869
ltibia 9.44476
lfoot -11.4335 19.8879
ltoes -6.37162
1003
root 0.430465 18.8227 2.58823 -3.9869 -5.03603 1.32113
lowerback 4.673 1.2312 -1.4583
upperback -0.119719 1.50074 -2.12623
thorax -2.72372 0.753369 -1.47392
lowerneck -5.54873 -5.44249 -8.07848
upperneck -0.192062 -6.94344 9.82285
head 1.4826 -3.32628 4.02208
rclavicle 1.48592e-014 -1.74931e-014
rhumerus 38.6949 0.717212 -50.0894
rradius 121.096
rwrist 12.1434
rhand -44.5273 23.4691
rfingers 7.12502
rthumb -17.3287 -5.77843
lclavicle 1.48592e-014 -1.74931e-014
lhumerus -35.0015 17.6773 67.7067
lradius 20.4503
lwrist -12.436
lhand -27.8714 21.2269
lfingers 7.12502
lthumb -1.26174 51.2029
rfemur 8.68803 19.2508 17.6505
rtibia 7.30274
rfoot -10.9885 -22.8069
rtoes -6.83359
lfemur 6.88653 -11.2227 -19.5394
ltibia 9.43946
lfoot -11.4461 19.8684
ltoes -6.20275
1004
root 0.430963 18.8232 2.58611 -3.98225 -5.06059 1.29392
lowerback 4.68874 1.2235 -1.43387
upperback -0.147286 1.49081 -2.12126
thorax -2.7606 0.748139 -1.48271
lowerneck -5.43932 -5.43336 -8.02918
upperneck -0.293742 -6.93405 9.78109
head 1.43066 -3.32588 4.00624
rclavicle -1.89342e-014 -3.18055e-015
rhumerus 38.6556 0.766867 -50.1266
rradius 121.108
rwrist 11.9552
rhand -44.4003 23.6521
rfingers 7.12502
rthumb -17.2065 -5.60608
lclavicle -1.89342e-014 -3.18055e-015
lhumerus -35.0786 17.6186 67.7285
lradius 20.5964
lwrist -12.4127
lhand -27.0202 22.3981
lfingers 7.12502
lthumb -0.439573 52.3774
rfemur 8.66227 19.2732 17.6765
rtibia 7.30936
rfoot -10.9705 -22.7878
rtoes -6.69015
lfemur 6.88052 -11.1998 -19.5102
ltibia 9.44565
lfoot -11.4427 19.8728
ltoes -6.1331
1005
root 0.430865 18.8228 2.58711 -3.99874 -5.09605 1.23808
lowerback 4.67796 1.2213 -1.38867
upperback -0.156067 1.49105 -2.10105
thorax -2.76295 0.747782 -1.48709
lowerneck -5.36541 -5.43919 -8.05526
upperneck -0.357351 -6.94222 9.4161
head 1.53883 -3.34698 4.33453
rclavicle 1.31695e-015 7.15625e-015
rhumerus 38.6122 0.856359 -50.1214
rradius 121.086
rwrist 11.8901
rhand -44.4515 23.7947
rfingers 7.12502
rthumb -17.2558 -5.45914
lclavicle 1.31695e-015 7.15625e-015
lhumerus -35.0856 17.3214 67.9001
lradius 20.66
lwrist -11.9615
lhand -26.0853 24.243
lfingers 7.12502
lthumb 0.463327 54.2223
rfemur 8.66723 19.3046 17.7476
rtibia 7.33384
rfoot -10.9838 -22.7721
rtoes -6.51584
lfemur 6.91998 -11.1681 -19.4582
ltibia 9.438
lfoot -11.4476 19.8736
ltoes -6.07455
1006
root 0.430998 18.8221 2.58861 -4.01465 -5.11059 1.2416
lowerback 4.65345 1.21527 -1.39101
upperback -0.135953 1.48399 -2.10471
thorax -2.72853 0.744262 -1.48806
lowerneck -5.43876 -5.46636 -8.02697
upperneck -0.287801 -6.97843 9.36865
head 1.575 -3.36359 4.30787
rclavicle -3.32964e-015 1.35174e-014
rhumerus 38.6046 0.903454 -50.1443
rradius 121.137
rwrist 11.7931
rhand -44.2798 23.7835
rfingers 7.12502
rthumb -17.0905 -5.48481
lclavicle -3.32964e-015 1.35174e-014
lhumerus -35.0186 17.1127 68.0451
lradius 20.692
lwrist -11.6402
lhand -25.9787 25.5239
lfingers 7.12502
lthumb 0.566319 55.5029
rfemur 8.67553 19.3196 17.7514
rtibia 7.36448
rfoot -11.0487 -22.7684
rtoes -6.46699
lfemur 6.94939 -11.1529 -19.4668
ltibia 9.41842
lfoot -11.4217 19.8813
ltoes -6.1655
1007
root 0.431378 18.821 2.58944 -4.03477 -5.11905 1.31337
lowerback 4.64802 1.2094 -1.46101
upperback -0.121681 1.47207 -2.13042
thorax -2.71208 0.739084 -1.47411
lowerneck -5.51881 -5.48604 -7.99133
upperneck -0.210371 -7.00551 9.33658
head 1.61456 -3.37527 4.28557
rclavicle 1.23743e-014 1.43125e-014
rhumerus 38.5732 0.928202 -50.1578
rradius 121.146
rwrist 11.8225
rhand -44.1703 23.7223
rfingers 7.12502
rthumb -16.9851 -5.55504
lclavicle 1.23743e-014 1.43125e-014
lhumerus -35.0024 17.0906 68.0657
lradius 20.7262
lwrist -11.6513
lhand -26.2077 25.6586
lfingers 7.12502
lthumb 0.345127 55.6381
rfemur 8.68374 19.3346 17.6754
rtibia 7.40378
rfoot -11.1231 -22.752
rtoes -6.44049
lfemur 6.98405 -11.1384 -19.5488
ltibia 9.38199
lfoot -11.399 19.8967
ltoes -6.32458
1008
root 0.431063 18.8204 2.58769 -4.07596 -5.10452 1.40331
lowerback 4.70846 1.19591 -1.5679
upperback -0.114569 1.44597 -2.14852
thorax -2.7413 0.727389 -1.43249
lowerneck -5.62219 -5.48398 -7.98174
upperneck -0.108027 -7.00198 9.31535
head 1.66551 -3.37092 4.2733
rclavicle 1.19271e-015 7.95139e-016
rhumerus 38.5431 0.95923 -50.1405
rradius 121.106
rwrist 11.9242
rhand -44.2244 23.5799
rfingers 7.12502
rthumb -17.0372 -5.69298
lclavicle 1.19271e-015 7.95139e-016
lhumerus -35.0785 17.1222 68.0517
lradius 20.8625
lwrist -11.7404
lhand -26.1886 25.732
lfingers 7.12502
lthumb 0.363605 55.7114
rfemur 8.71758 19.3284 17.5895
rtibia 7.4223
rfoot -11.1344 -22.7847
rtoes -6.4544
lfemur 7.01933 -11.1463 -19.6472
ltibia 9.36549
lfoot -11.3784 19.9126
ltoes -6.44631
1009
root 0.430192 18.82 2.58227 -4.12415 -5.07555 1.40576
lowerback 4.81188 1.17756 -1.58582
upperback -0.0967579 1.41786 -2.14517
thorax -2.78188 0.713643 -1.41929
lowerneck -5.75034 -5.48225 -7.90808
upperneck 0.0744944 -7.0049 9.59078
head 1.58391 -3.35306 3.91271
rclavicle -1.0312e-014 -3.18055e-015
rhumerus 38.5376 0.978431 -50.1573
rradius 121.134
rwrist 11.8766
rhand -44.125 23.3087
rfingers 7.12502
rthumb -16.9415 -5.97239
lclavicle -1.0312e-014 -3.18055e-015
lhumerus -35.2045 17.1335 68.0562
lradius 21.166
lwrist -11.7855
lhand -26.1287 25.8823
lfingers 7.12502
lthumb 0.421414 55.8617
rfemur 8.76829 19.3002 17.6126
rtibia 7.41042
rfoot -11.0793 -22.8341
rtoes -6.49754
lfemur 7.03706 -11.1778 -19.6382
ltibia 9.37613
lfoot -11.3253 19.9275
ltoes -6.60787
1010
root 0.430415 18.8205 2.58139 -4.13159 -5.12797 1.30037
lowerback 4.81358 1.18761 -1.46984
upperback -0.0862232 1.4388 -2.12054
thorax -2.76942 0.72265 -1.46024
lowerneck -5.73919 -5.48456 -7.89964
upperneck 0.121625 -7.01229 9.59007
head 1.59634 -3.35666 3.91041
rclavicle -1.717e-014 -7.95139e-016
rhumerus 38.4918 1.00254 -50.1912
rradius 121.147
rwrist 11.816
rhand -44.0654 23.2254
rfingers 7.12502
rthumb -16.8842 -6.06064
lclavicle -1.717e-014 -7.95139e-016
lhumerus -35.2085 17.2031 68.0238
lradius 21.1727
lwrist -11.86
lhand -26.242 25.2577
lfingers 7.12502
lthumb 0.312015 55.2373
rfemur 8.78109 19.3438 17.7397
rtibia 7.38512
rfoot -11.0247 -22.8121
rtoes -6.52301
lfemur 7.05094 -11.1344 -19.5215
ltibia 9.38836
lfoot -11.303 19.9173
ltoes -6.68639
1011
root 0.432678 18.8217 2.58644 -4.09742 -5.24914 1.23091
lowerback 4.72009 1.22227 -1.36658
upperback -0.0987978 1.4937 -2.10435
thorax -2.72688 0.748737 -1.50311
lowerneck -5.62993 -5.49545 -7.96632
upperneck 0.0436558 -7.02613 9.28778
head 1.71743 -3.38256 4.25814
rclavicle -9.98893e-015 2.54444e-014
rhumerus 38.3875 1.06979 -50.2093
rradius 121.13
rwrist 11.8764
rhand -44.2736 23.4907
rfingers 7.12502
rthumb -17.0846 -5.77812
lclavicle -9.98893e-015 2.54444e-014
lhumerus -35.1412 17.3782 67.9281
lradius 20.8675
lwrist -11.9022
lhand -26.485 24.1087
lfingers 7.12502
lthumb 0.0773363 54.0884
rfemur 8.76138 19.4593 17.7971
rtibia 7.32458
rfoot -11.0225 -22.7532
rtoes -6.49192
lfemur 7.03933 -11.0148 -19.4659
ltibia 9.42545
lfoot -11.3272 19.8946
ltoes -6.65564
1012
root 0.435277 18.8228 2.58772 -4.05276 -5.32895 1.27349
lowerback 4.65303 1.24799 -1.37939
upperback -0.110252 1.52847 -2.11897
thorax -2.70046 0.766155 -1.51185
lowerneck -5.6152 -5.52538 -7.93514
upperneck 0.0705484 -7.06893 9.22452
head 1.72294 -3.40498 4.22719
rclavicle -2.06985e-014 1.03368e-014
rhumerus 38.2823 1.11984 -50.2069
rradius 121.143
rwrist 11.9143
rhand -44.5594 23.8871
rfingers 7.12502
rthumb -17.3596 -5.35768
lclavicle -2.06985e-014 1.03368e-014
lhumerus -35.1231 17.4123 67.9235
lradius 20.733
lwrist -11.6809
lhand -26.821 23.2739
lfingers 7.12502
lthumb -0.247252 53.2535
rfemur 8.71344 19.5427 17.7175
rtibia 7.27609
rfoot -11.007 -22.7558
rtoes -6.51671
lfemur 6.994 -10.9279 -19.5235
ltibia 9.45421
lfoot -11.4261 19.8521
ltoes -6.27856
1013
root 0.435671 18.8237 2.58528 -4.03246 -5.36111 1.28858
lowerback 4.64825 1.25455 -1.40099
upperback -0.103965 1.53633 -2.11781
thorax -2.69178 0.770364 -1.49886
lowerneck -5.66116 -5.53766 -7.91952
upperneck 0.106972 -7.08464 9.1955
head 1.74268 -3.41197 4.21162
rclavicle 6.4605e-016 1.59028e-014
rhumerus 38.2303 1.15002 -50.1919
rradius 121.176
rwrist 11.8704
rhand -44.5908 23.9958
rfingers 7.12502
rthumb -17.3898 -5.24628
lclavicle 6.4605e-016 1.59028e-014
lhumerus -35.089 17.3588 67.9901
lradius 20.7235
lwrist -11.4657
lhand -27.0719 22.9726
lfingers 7.12502
lthumb -0.489524 52.9518
rfemur 8.62817 19.5754 17.6909
rtibia 7.36471
rfoot -11.0429 -22.8093
rtoes -6.47933
lfemur 7.01454 -10.8942 -19.5334
ltibia 9.36841
lfoot -11.4712 19.8233
ltoes -5.88509
1014
root 0.435573 18.8232 2.58485 -4.0307 -5.38835 1.27809
lowerback 4.63945 1.25301 -1.39831
upperback -0.0961269 1.53514 -2.10843
thorax -2.67897 0.76979 -1.49024
lowerneck -5.7417 -5.53231 -7.92575
upperneck 0.221838 -7.07867 9.19953
head 1.79558 -3.40662 4.21224
rclavicle -2.99916e-014 1.59028e-014
rhumerus 38.1919 1.23523 -50.1907
rradius 121.207
rwrist 11.7537
rhand -44.3332 23.7654
rfingers 7.12502
rthumb -17.142 -5.49843
lclavicle -2.99916e-014 1.59028e-014
lhumerus -35.007 17.3187 68.0361
lradius 20.6352
lwrist -11.3819
lhand -27.1127 23.0613
lfingers 7.12502
lthumb -0.528925 53.0404
rfemur 8.60106 19.6012 17.7051
rtibia 7.405
rfoot -11.0721 -22.8338
rtoes -6.37152
lfemur 7.03079 -10.8682 -19.5159
ltibia 9.31785
lfoot -11.4416 19.8243
ltoes -5.88172
1015
root 0.43803 18.8226 2.58515 -3.9813 -5.37533 1.40747
lowerback 4.52269 1.24555 -1.49341
upperback -0.0831176 1.5225 -2.15518
thorax -2.60149 0.764415 -1.48094
lowerneck -5.81209 -5.5246 -7.86418
upperneck 0.410622 -7.07908 9.50175
head 1.69442 -3.38722 3.86884
rclavicle 1.06847e-014 -1.11319e-014
rhumerus 38.1306 1.30582 -50.1919
rradius 121.225
rwrist 11.6077
rhand -44.1001 23.5124
rfingers 7.12502
rthumb -16.9175 -5.77076
lclavicle 1.06847e-014 -1.11319e-014
lhumerus -34.8901 17.2142 68.1089
lradius 20.5601
lwrist -11.2541
lhand -27.0023 23.5261
lfingers 7.12502
lthumb -0.422304 53.5054
rfemur 8.50692 19.5987 17.5181
rtibia 7.45207
rfoot -11.0588 -22.8333
rtoes -6.58367
lfemur 6.98235 -10.8688 -19.6568
ltibia 9.26723
lfoot -11.4188 19.8279
ltoes -5.84257
1016
root 0.43307 18.8203 2.5865 -4.22582 -5.57659 1.19109
lowerback 4.72042 1.31081 -1.31193
upperback 0.011643 1.61793 -2.08648
thorax -2.61035 0.810045 -1.52188
lowerneck -5.76136 -5.53999 -7.8555
upperneck 0.403272 -7.1032 9.49952
head 1.68571 -3.40062 3.86699
rclavicle -1.77664e-014 2.78299e-014
rhumerus 38.0185 1.33264 -50.1939
rradius 121.224
rwrist 11.6173
rhand -44.0825 23.2988
rfingers 7.12502
rthumb -16.9007 -5.98582
lclavicle -1.77664e-014 2.78299e-014
lhumerus -34.826 17.1448 68.1492
lradius 20.5496
lwrist -11.2149
lhand -26.8308 23.9042
lfingers 7.12502
lthumb -0.256658 53.8838
rfemur 8.76266 19.786 17.908
rtibia 7.46932
rfoot -11.0169 -22.8452
rtoes -6.77067
lfemur 7.30534 -10.6905 -19.4346
ltibia 9.255
lfoot -11.4884 19.8069
ltoes -5.74701
